<svg xmlns="http://www.w3.org/2000/svg" xmlns:xlink="http://www.w3.org/1999/xlink" width="200" zoomAndPan="magnify" viewBox="0 0 150 149.999998" height="200" preserveAspectRatio="xMidYMid meet" version="1.2"><defs><clipPath id="017537ac9a"><path d="M 23.769531 89.003906 L 126.027344 89.003906 L 126.027344 135.265625 L 23.769531 135.265625 Z M 23.769531 89.003906 "/></clipPath><clipPath id="b6d9577530"><path d="M 23.765625 100.070312 C 23.765625 119.507812 39.523438 135.265625 58.960938 135.265625 L 91.039062 135.265625 C 110.476562 135.265625 126.234375 119.507812 126.234375 100.070312 C 126.234375 80.632812 110.476562 64.875 91.039062 64.875 L 58.960938 64.875 C 39.523438 64.875 23.765625 80.632812 23.765625 100.070312 Z M 23.765625 100.070312 "/></clipPath><clipPath id="97de121152"><path d="M 23.769531 185.292969 L 126.027344 185.292969 L 126.027344 89.054688 L 23.769531 91.691406 L 23.769531 185.292969 "/></clipPath><clipPath id="ac7a66536b"><path d="M 126.027344 89.054688 L 23.765625 89.054688 L 23.769531 185.292969 L 126.027344 185.292969 Z M 126.027344 89.054688 "/></clipPath><linearGradient x1="-0.00000769455" gradientTransform="matrix(0,96.238363,-96.154783,0,74.896919,89.054185)" y1="0" x2="0.480165" gradientUnits="userSpaceOnUse" y2="0" id="9778ace3bd"><stop style="stop-color:#3986c4;stop-opacity:1;" offset="0"/><stop style="stop-color:#3986c4;stop-opacity:1;" offset="0.03125"/><stop style="stop-color:#3986c4;stop-opacity:1;" offset="0.046875"/><stop style="stop-color:#3986c3;stop-opacity:1;" offset="0.0625"/><stop style="stop-color:#3986c3;stop-opacity:1;" offset="0.125"/><stop style="stop-color:#3885c2;stop-opacity:1;" offset="0.1875"/><stop style="stop-color:#3885c1;stop-opacity:1;" offset="0.25"/><stop style="stop-color:#3884c0;stop-opacity:1;" offset="0.3125"/><stop style="stop-color:#3884bf;stop-opacity:1;" offset="0.34375"/><stop style="stop-color:#3884bf;stop-opacity:1;" offset="0.359375"/><stop style="stop-color:#3884be;stop-opacity:1;" offset="0.375"/><stop style="stop-color:#3884be;stop-opacity:1;" offset="0.40625"/><stop style="stop-color:#3983be;stop-opacity:1;" offset="0.4375"/><stop style="stop-color:#3983bd;stop-opacity:1;" offset="0.5"/><stop style="stop-color:#3983bd;stop-opacity:1;" offset="0.53125"/><stop style="stop-color:#3983bc;stop-opacity:1;" offset="0.5625"/><stop style="stop-color:#3882bc;stop-opacity:1;" offset="0.578125"/><stop style="stop-color:#3882bb;stop-opacity:1;" offset="0.59375"/><stop style="stop-color:#3882bb;stop-opacity:1;" offset="0.625"/><stop style="stop-color:#3882bb;stop-opacity:1;" offset="0.640625"/><stop style="stop-color:#3882ba;stop-opacity:1;" offset="0.65625"/><stop style="stop-color:#3882ba;stop-opacity:1;" offset="0.6875"/><stop style="stop-color:#3881ba;stop-opacity:1;" offset="0.703125"/><stop style="stop-color:#3881b9;stop-opacity:1;" offset="0.71875"/><stop style="stop-color:#3881b9;stop-opacity:1;" offset="0.75"/><stop style="stop-color:#3881b9;stop-opacity:1;" offset="0.8125"/><stop style="stop-color:#3881b8;stop-opacity:1;" offset="0.84375"/><stop style="stop-color:#3880b8;stop-opacity:1;" offset="0.875"/><stop style="stop-color:#3880b7;stop-opacity:1;" offset="0.9375"/><stop style="stop-color:#3880b7;stop-opacity:1;" offset="0.96875"/><stop style="stop-color:#3880b6;stop-opacity:1;" offset="0.984375"/><stop style="stop-color:#3880b6;stop-opacity:1;" offset="0.992188"/><stop style="stop-color:#387fb6;stop-opacity:1;" offset="0.996094"/><stop style="stop-color:#387fb5;stop-opacity:1;" offset="1"/></linearGradient><clipPath id="639dc3e41b"><path d="M 23.765625 87 L 126.027344 87 L 126.027344 95 L 23.765625 95 Z M 23.765625 87 "/></clipPath><clipPath id="350d545ff6"><path d="M 23.765625 100.070312 C 23.765625 119.507812 39.523438 135.265625 58.960938 135.265625 L 91.039062 135.265625 C 110.476562 135.265625 126.234375 119.507812 126.234375 100.070312 C 126.234375 80.632812 110.476562 64.875 91.039062 64.875 L 58.960938 64.875 C 39.523438 64.875 23.765625 80.632812 23.765625 100.070312 Z M 23.765625 100.070312 "/></clipPath><clipPath id="2e393d2f81"><path d="M 23.765625 87 L 126 87 L 126 95 L 23.765625 95 Z M 23.765625 87 "/></clipPath><clipPath id="7e5e850b15"><path d="M 23.765625 100.070312 C 23.765625 119.507812 39.523438 135.265625 58.960938 135.265625 L 91.039062 135.265625 C 110.476562 135.265625 126.234375 119.507812 126.234375 100.070312 C 126.234375 80.632812 110.476562 64.875 91.039062 64.875 L 58.960938 64.875 C 39.523438 64.875 23.765625 80.632812 23.765625 100.070312 Z M 23.765625 100.070312 "/></clipPath><clipPath id="12f1d749f6"><path d="M 60 74 L 65 74 L 65 84 L 60 84 Z M 60 74 "/></clipPath><clipPath id="f4ae89e507"><path d="M 23.765625 100.070312 C 23.765625 119.507812 39.523438 135.265625 58.960938 135.265625 L 91.039062 135.265625 C 110.476562 135.265625 126.234375 119.507812 126.234375 100.070312 C 126.234375 80.632812 110.476562 64.875 91.039062 64.875 L 58.960938 64.875 C 39.523438 64.875 23.765625 80.632812 23.765625 100.070312 Z M 23.765625 100.070312 "/></clipPath><clipPath id="bf6bd1d4d2"><path d="M 56 78 L 68 78 L 68 92 L 56 92 Z M 56 78 "/></clipPath><clipPath id="5fb38f0c2e"><path d="M 23.765625 100.070312 C 23.765625 119.507812 39.523438 135.265625 58.960938 135.265625 L 91.039062 135.265625 C 110.476562 135.265625 126.234375 119.507812 126.234375 100.070312 C 126.234375 80.632812 110.476562 64.875 91.039062 64.875 L 58.960938 64.875 C 39.523438 64.875 23.765625 80.632812 23.765625 100.070312 Z M 23.765625 100.070312 "/></clipPath><clipPath id="0807f7270d"><path d="M 62 74 L 68 74 L 68 90 L 62 90 Z M 62 74 "/></clipPath><clipPath id="a83af64006"><path d="M 23.765625 100.070312 C 23.765625 119.507812 39.523438 135.265625 58.960938 135.265625 L 91.039062 135.265625 C 110.476562 135.265625 126.234375 119.507812 126.234375 100.070312 C 126.234375 80.632812 110.476562 64.875 91.039062 64.875 L 58.960938 64.875 C 39.523438 64.875 23.765625 80.632812 23.765625 100.070312 Z M 23.765625 100.070312 "/></clipPath><clipPath id="dc01f7fc1d"><path d="M 69 64.875 L 76 64.875 L 76 71 L 69 71 Z M 69 64.875 "/></clipPath><clipPath id="584ff1d5fc"><path d="M 23.765625 100.070312 C 23.765625 119.507812 39.523438 135.265625 58.960938 135.265625 L 91.039062 135.265625 C 110.476562 135.265625 126.234375 119.507812 126.234375 100.070312 C 126.234375 80.632812 110.476562 64.875 91.039062 64.875 L 58.960938 64.875 C 39.523438 64.875 23.765625 80.632812 23.765625 100.070312 Z M 23.765625 100.070312 "/></clipPath><clipPath id="7bca03fc6c"><path d="M 77 68 L 83 68 L 83 75 L 77 75 Z M 77 68 "/></clipPath><clipPath id="5c7bf41027"><path d="M 23.765625 100.070312 C 23.765625 119.507812 39.523438 135.265625 58.960938 135.265625 L 91.039062 135.265625 C 110.476562 135.265625 126.234375 119.507812 126.234375 100.070312 C 126.234375 80.632812 110.476562 64.875 91.039062 64.875 L 58.960938 64.875 C 39.523438 64.875 23.765625 80.632812 23.765625 100.070312 Z M 23.765625 100.070312 "/></clipPath><clipPath id="294116f0a7"><path d="M 81 85 L 87 85 L 87 90 L 81 90 Z M 81 85 "/></clipPath><clipPath id="5119c776fc"><path d="M 23.765625 100.070312 C 23.765625 119.507812 39.523438 135.265625 58.960938 135.265625 L 91.039062 135.265625 C 110.476562 135.265625 126.234375 119.507812 126.234375 100.070312 C 126.234375 80.632812 110.476562 64.875 91.039062 64.875 L 58.960938 64.875 C 39.523438 64.875 23.765625 80.632812 23.765625 100.070312 Z M 23.765625 100.070312 "/></clipPath><clipPath id="1234360031"><path d="M 72 65 L 79 65 L 79 86 L 72 86 Z M 72 65 "/></clipPath><clipPath id="158145af3e"><path d="M 23.765625 100.070312 C 23.765625 119.507812 39.523438 135.265625 58.960938 135.265625 L 91.039062 135.265625 C 110.476562 135.265625 126.234375 119.507812 126.234375 100.070312 C 126.234375 80.632812 110.476562 64.875 91.039062 64.875 L 58.960938 64.875 C 39.523438 64.875 23.765625 80.632812 23.765625 100.070312 Z M 23.765625 100.070312 "/></clipPath><clipPath id="2439b92c7b"><path d="M 65 64.875 L 77 64.875 L 77 90 L 65 90 Z M 65 64.875 "/></clipPath><clipPath id="7f054d3737"><path d="M 23.765625 100.070312 C 23.765625 119.507812 39.523438 135.265625 58.960938 135.265625 L 91.039062 135.265625 C 110.476562 135.265625 126.234375 119.507812 126.234375 100.070312 C 126.234375 80.632812 110.476562 64.875 91.039062 64.875 L 58.960938 64.875 C 39.523438 64.875 23.765625 80.632812 23.765625 100.070312 Z M 23.765625 100.070312 "/></clipPath><clipPath id="1419f6813d"><path d="M 77 72 L 88 72 L 88 87 L 77 87 Z M 77 72 "/></clipPath><clipPath id="9458d8a2ec"><path d="M 23.765625 100.070312 C 23.765625 119.507812 39.523438 135.265625 58.960938 135.265625 L 91.039062 135.265625 C 110.476562 135.265625 126.234375 119.507812 126.234375 100.070312 C 126.234375 80.632812 110.476562 64.875 91.039062 64.875 L 58.960938 64.875 C 39.523438 64.875 23.765625 80.632812 23.765625 100.070312 Z M 23.765625 100.070312 "/></clipPath><clipPath id="cc3927a676"><path d="M 83 83 L 91 83 L 91 90 L 83 90 Z M 83 83 "/></clipPath><clipPath id="bc1fecdcdc"><path d="M 23.765625 100.070312 C 23.765625 119.507812 39.523438 135.265625 58.960938 135.265625 L 91.039062 135.265625 C 110.476562 135.265625 126.234375 119.507812 126.234375 100.070312 C 126.234375 80.632812 110.476562 64.875 91.039062 64.875 L 58.960938 64.875 C 39.523438 64.875 23.765625 80.632812 23.765625 100.070312 Z M 23.765625 100.070312 "/></clipPath><clipPath id="e49300e243"><path d="M 74 81 L 84 81 L 84 90 L 74 90 Z M 74 81 "/></clipPath><clipPath id="725820ed97"><path d="M 23.765625 100.070312 C 23.765625 119.507812 39.523438 135.265625 58.960938 135.265625 L 91.039062 135.265625 C 110.476562 135.265625 126.234375 119.507812 126.234375 100.070312 C 126.234375 80.632812 110.476562 64.875 91.039062 64.875 L 58.960938 64.875 C 39.523438 64.875 23.765625 80.632812 23.765625 100.070312 Z M 23.765625 100.070312 "/></clipPath><clipPath id="f59e806cec"><path d="M 52 89 L 67 89 L 67 104 L 52 104 Z M 52 89 "/></clipPath><clipPath id="0938a9c6b3"><path d="M 23.765625 100.070312 C 23.765625 119.507812 39.523438 135.265625 58.960938 135.265625 L 91.039062 135.265625 C 110.476562 135.265625 126.234375 119.507812 126.234375 100.070312 C 126.234375 80.632812 110.476562 64.875 91.039062 64.875 L 58.960938 64.875 C 39.523438 64.875 23.765625 80.632812 23.765625 100.070312 Z M 23.765625 100.070312 "/></clipPath><clipPath id="e8a15241d7"><path d="M 45 125 L 61 125 L 61 135.265625 L 45 135.265625 Z M 45 125 "/></clipPath><clipPath id="3403f84462"><path d="M 23.765625 100.070312 C 23.765625 119.507812 39.523438 135.265625 58.960938 135.265625 L 91.039062 135.265625 C 110.476562 135.265625 126.234375 119.507812 126.234375 100.070312 C 126.234375 80.632812 110.476562 64.875 91.039062 64.875 L 58.960938 64.875 C 39.523438 64.875 23.765625 80.632812 23.765625 100.070312 Z M 23.765625 100.070312 "/></clipPath><clipPath id="f3948a676b"><path d="M 91 134 L 98 134 L 98 135.265625 L 91 135.265625 Z M 91 134 "/></clipPath><clipPath id="75f61e1fa8"><path d="M 23.765625 100.070312 C 23.765625 119.507812 39.523438 135.265625 58.960938 135.265625 L 91.039062 135.265625 C 110.476562 135.265625 126.234375 119.507812 126.234375 100.070312 C 126.234375 80.632812 110.476562 64.875 91.039062 64.875 L 58.960938 64.875 C 39.523438 64.875 23.765625 80.632812 23.765625 100.070312 Z M 23.765625 100.070312 "/></clipPath><clipPath id="fcccb1a247"><path d="M 83 89 L 98 89 L 98 102 L 83 102 Z M 83 89 "/></clipPath><clipPath id="a3d16ee47b"><path d="M 23.765625 100.070312 C 23.765625 119.507812 39.523438 135.265625 58.960938 135.265625 L 91.039062 135.265625 C 110.476562 135.265625 126.234375 119.507812 126.234375 100.070312 C 126.234375 80.632812 110.476562 64.875 91.039062 64.875 L 58.960938 64.875 C 39.523438 64.875 23.765625 80.632812 23.765625 100.070312 Z M 23.765625 100.070312 "/></clipPath><clipPath id="b49e88bec8"><path d="M 91 97 L 100 97 L 100 108 L 91 108 Z M 91 97 "/></clipPath><clipPath id="d357c7939e"><path d="M 23.765625 100.070312 C 23.765625 119.507812 39.523438 135.265625 58.960938 135.265625 L 91.039062 135.265625 C 110.476562 135.265625 126.234375 119.507812 126.234375 100.070312 C 126.234375 80.632812 110.476562 64.875 91.039062 64.875 L 58.960938 64.875 C 39.523438 64.875 23.765625 80.632812 23.765625 100.070312 Z M 23.765625 100.070312 "/></clipPath><clipPath id="2ba8d33123"><path d="M 96 97 L 104 97 L 104 118 L 96 118 Z M 96 97 "/></clipPath><clipPath id="20bd0357a9"><path d="M 23.765625 100.070312 C 23.765625 119.507812 39.523438 135.265625 58.960938 135.265625 L 91.039062 135.265625 C 110.476562 135.265625 126.234375 119.507812 126.234375 100.070312 C 126.234375 80.632812 110.476562 64.875 91.039062 64.875 L 58.960938 64.875 C 39.523438 64.875 23.765625 80.632812 23.765625 100.070312 Z M 23.765625 100.070312 "/></clipPath><clipPath id="bcdcd42d66"><path d="M 86 96 L 102 96 L 102 117 L 86 117 Z M 86 96 "/></clipPath><clipPath id="a70c231743"><path d="M 23.765625 100.070312 C 23.765625 119.507812 39.523438 135.265625 58.960938 135.265625 L 91.039062 135.265625 C 110.476562 135.265625 126.234375 119.507812 126.234375 100.070312 C 126.234375 80.632812 110.476562 64.875 91.039062 64.875 L 58.960938 64.875 C 39.523438 64.875 23.765625 80.632812 23.765625 100.070312 Z M 23.765625 100.070312 "/></clipPath><clipPath id="0149c6c04a"><path d="M 94 110 L 103 110 L 103 135.265625 L 94 135.265625 Z M 94 110 "/></clipPath><clipPath id="5b9c1da85e"><path d="M 23.765625 100.070312 C 23.765625 119.507812 39.523438 135.265625 58.960938 135.265625 L 91.039062 135.265625 C 110.476562 135.265625 126.234375 119.507812 126.234375 100.070312 C 126.234375 80.632812 110.476562 64.875 91.039062 64.875 L 58.960938 64.875 C 39.523438 64.875 23.765625 80.632812 23.765625 100.070312 Z M 23.765625 100.070312 "/></clipPath><clipPath id="3b44f1850d"><path d="M 80 104 L 102 104 L 102 132 L 80 132 Z M 80 104 "/></clipPath><clipPath id="f345db0eb0"><path d="M 23.765625 100.070312 C 23.765625 119.507812 39.523438 135.265625 58.960938 135.265625 L 91.039062 135.265625 C 110.476562 135.265625 126.234375 119.507812 126.234375 100.070312 C 126.234375 80.632812 110.476562 64.875 91.039062 64.875 L 58.960938 64.875 C 39.523438 64.875 23.765625 80.632812 23.765625 100.070312 Z M 23.765625 100.070312 "/></clipPath><clipPath id="e3a6591cec"><path d="M 67 111 L 101 111 L 101 135.265625 L 67 135.265625 Z M 67 111 "/></clipPath><clipPath id="e8e7cb4a2b"><path d="M 23.765625 100.070312 C 23.765625 119.507812 39.523438 135.265625 58.960938 135.265625 L 91.039062 135.265625 C 110.476562 135.265625 126.234375 119.507812 126.234375 100.070312 C 126.234375 80.632812 110.476562 64.875 91.039062 64.875 L 58.960938 64.875 C 39.523438 64.875 23.765625 80.632812 23.765625 100.070312 Z M 23.765625 100.070312 "/></clipPath><clipPath id="dd07ba29ca"><path d="M 69 128 L 76 128 L 76 135.265625 L 69 135.265625 Z M 69 128 "/></clipPath><clipPath id="d002b4a45a"><path d="M 23.765625 100.070312 C 23.765625 119.507812 39.523438 135.265625 58.960938 135.265625 L 91.039062 135.265625 C 110.476562 135.265625 126.234375 119.507812 126.234375 100.070312 C 126.234375 80.632812 110.476562 64.875 91.039062 64.875 L 58.960938 64.875 C 39.523438 64.875 23.765625 80.632812 23.765625 100.070312 Z M 23.765625 100.070312 "/></clipPath><clipPath id="77a0d668ee"><path d="M 66 89 L 90 89 L 90 117 L 66 117 Z M 66 89 "/></clipPath><clipPath id="3225c21fa7"><path d="M 23.765625 100.070312 C 23.765625 119.507812 39.523438 135.265625 58.960938 135.265625 L 91.039062 135.265625 C 110.476562 135.265625 126.234375 119.507812 126.234375 100.070312 C 126.234375 80.632812 110.476562 64.875 91.039062 64.875 L 58.960938 64.875 C 39.523438 64.875 23.765625 80.632812 23.765625 100.070312 Z M 23.765625 100.070312 "/></clipPath><clipPath id="181d077943"><path d="M 61 102 L 74 102 L 74 135 L 61 135 Z M 61 102 "/></clipPath><clipPath id="649c458ed3"><path d="M 23.765625 100.070312 C 23.765625 119.507812 39.523438 135.265625 58.960938 135.265625 L 91.039062 135.265625 C 110.476562 135.265625 126.234375 119.507812 126.234375 100.070312 C 126.234375 80.632812 110.476562 64.875 91.039062 64.875 L 58.960938 64.875 C 39.523438 64.875 23.765625 80.632812 23.765625 100.070312 Z M 23.765625 100.070312 "/></clipPath><clipPath id="f18b946e95"><path d="M 53 129 L 76 129 L 76 135.265625 L 53 135.265625 Z M 53 129 "/></clipPath><clipPath id="ce7cfc107f"><path d="M 23.765625 100.070312 C 23.765625 119.507812 39.523438 135.265625 58.960938 135.265625 L 91.039062 135.265625 C 110.476562 135.265625 126.234375 119.507812 126.234375 100.070312 C 126.234375 80.632812 110.476562 64.875 91.039062 64.875 L 58.960938 64.875 C 39.523438 64.875 23.765625 80.632812 23.765625 100.070312 Z M 23.765625 100.070312 "/></clipPath><clipPath id="86453faadf"><path d="M 54 124 L 69 124 L 69 135.265625 L 54 135.265625 Z M 54 124 "/></clipPath><clipPath id="b06e56612f"><path d="M 23.765625 100.070312 C 23.765625 119.507812 39.523438 135.265625 58.960938 135.265625 L 91.039062 135.265625 C 110.476562 135.265625 126.234375 119.507812 126.234375 100.070312 C 126.234375 80.632812 110.476562 64.875 91.039062 64.875 L 58.960938 64.875 C 39.523438 64.875 23.765625 80.632812 23.765625 100.070312 Z M 23.765625 100.070312 "/></clipPath><clipPath id="3340c03cde"><path d="M 57 118 L 90 118 L 90 135.265625 L 57 135.265625 Z M 57 118 "/></clipPath><clipPath id="0d2606e449"><path d="M 23.765625 100.070312 C 23.765625 119.507812 39.523438 135.265625 58.960938 135.265625 L 91.039062 135.265625 C 110.476562 135.265625 126.234375 119.507812 126.234375 100.070312 C 126.234375 80.632812 110.476562 64.875 91.039062 64.875 L 58.960938 64.875 C 39.523438 64.875 23.765625 80.632812 23.765625 100.070312 Z M 23.765625 100.070312 "/></clipPath><clipPath id="5d2bbde956"><path d="M 54 107 L 68 107 L 68 130 L 54 130 Z M 54 107 "/></clipPath><clipPath id="f1e9295440"><path d="M 23.765625 100.070312 C 23.765625 119.507812 39.523438 135.265625 58.960938 135.265625 L 91.039062 135.265625 C 110.476562 135.265625 126.234375 119.507812 126.234375 100.070312 C 126.234375 80.632812 110.476562 64.875 91.039062 64.875 L 58.960938 64.875 C 39.523438 64.875 23.765625 80.632812 23.765625 100.070312 Z M 23.765625 100.070312 "/></clipPath><clipPath id="18cbd845aa"><path d="M 49 121 L 57 121 L 57 135.265625 L 49 135.265625 Z M 49 121 "/></clipPath><clipPath id="63185f4a91"><path d="M 23.765625 100.070312 C 23.765625 119.507812 39.523438 135.265625 58.960938 135.265625 L 91.039062 135.265625 C 110.476562 135.265625 126.234375 119.507812 126.234375 100.070312 C 126.234375 80.632812 110.476562 64.875 91.039062 64.875 L 58.960938 64.875 C 39.523438 64.875 23.765625 80.632812 23.765625 100.070312 Z M 23.765625 100.070312 "/></clipPath><clipPath id="270f2d9be0"><path d="M 45 112 L 56 112 L 56 130 L 45 130 Z M 45 112 "/></clipPath><clipPath id="ca67e48587"><path d="M 23.765625 100.070312 C 23.765625 119.507812 39.523438 135.265625 58.960938 135.265625 L 91.039062 135.265625 C 110.476562 135.265625 126.234375 119.507812 126.234375 100.070312 C 126.234375 80.632812 110.476562 64.875 91.039062 64.875 L 58.960938 64.875 C 39.523438 64.875 23.765625 80.632812 23.765625 100.070312 Z M 23.765625 100.070312 "/></clipPath><clipPath id="0d5972f3e3"><path d="M 59 89 L 75 89 L 75 115 L 59 115 Z M 59 89 "/></clipPath><clipPath id="4fafd97a90"><path d="M 23.765625 100.070312 C 23.765625 119.507812 39.523438 135.265625 58.960938 135.265625 L 91.039062 135.265625 C 110.476562 135.265625 126.234375 119.507812 126.234375 100.070312 C 126.234375 80.632812 110.476562 64.875 91.039062 64.875 L 58.960938 64.875 C 39.523438 64.875 23.765625 80.632812 23.765625 100.070312 Z M 23.765625 100.070312 "/></clipPath><clipPath id="872b4e16c8"><path d="M 50 91 L 65 91 L 65 124 L 50 124 Z M 50 91 "/></clipPath><clipPath id="7c28803d0a"><path d="M 23.765625 100.070312 C 23.765625 119.507812 39.523438 135.265625 58.960938 135.265625 L 91.039062 135.265625 C 110.476562 135.265625 126.234375 119.507812 126.234375 100.070312 C 126.234375 80.632812 110.476562 64.875 91.039062 64.875 L 58.960938 64.875 C 39.523438 64.875 23.765625 80.632812 23.765625 100.070312 Z M 23.765625 100.070312 "/></clipPath><clipPath id="fe37b6b61b"><path d="M 56 88 L 91 88 L 91 92 L 56 92 Z M 56 88 "/></clipPath><clipPath id="52abf9abbb"><path d="M 23.765625 100.070312 C 23.765625 119.507812 39.523438 135.265625 58.960938 135.265625 L 91.039062 135.265625 C 110.476562 135.265625 126.234375 119.507812 126.234375 100.070312 C 126.234375 80.632812 110.476562 64.875 91.039062 64.875 L 58.960938 64.875 C 39.523438 64.875 23.765625 80.632812 23.765625 100.070312 Z M 23.765625 100.070312 "/></clipPath><clipPath id="6316f074d0"><path d="M 19 36 L 129 36 L 129 141 L 19 141 Z M 19 36 "/></clipPath><clipPath id="013e67c25b"><path d="M 148.390625 126.980469 L 29.660156 153.894531 L 1.769531 30.847656 L 120.496094 3.933594 Z M 148.390625 126.980469 "/></clipPath><clipPath id="7f54fabd4f"><path d="M 120.496094 3.933594 L 1.769531 30.847656 L 29.660156 153.894531 L 148.390625 126.980469 Z M 120.496094 3.933594 "/></clipPath><clipPath id="457d917918"><path d="M 60 34 L 95 34 L 95 59 L 60 59 Z M 60 34 "/></clipPath><clipPath id="50d0ff24a9"><path d="M 148.390625 126.980469 L 29.660156 153.894531 L 1.769531 30.847656 L 120.496094 3.933594 Z M 148.390625 126.980469 "/></clipPath><clipPath id="2d1c7db079"><path d="M 120.496094 3.933594 L 1.769531 30.847656 L 29.660156 153.894531 L 148.390625 126.980469 Z M 120.496094 3.933594 "/></clipPath><clipPath id="8edb0bd5b0"><path d="M 96 7 L 122 7 L 122 41 L 96 41 Z M 96 7 "/></clipPath><clipPath id="909c3b8b44"><path d="M 148.390625 126.980469 L 29.660156 153.894531 L 1.769531 30.847656 L 120.496094 3.933594 Z M 148.390625 126.980469 "/></clipPath><clipPath id="3558ca4513"><path d="M 120.496094 3.933594 L 1.769531 30.847656 L 29.660156 153.894531 L 148.390625 126.980469 Z M 120.496094 3.933594 "/></clipPath><clipPath id="ddc09de3da"><path d="M 17 5 L 131 5 L 131 143 L 17 143 Z M 17 5 "/></clipPath><clipPath id="b9d8c21fda"><path d="M 148.390625 126.980469 L 29.660156 153.894531 L 1.769531 30.847656 L 120.496094 3.933594 Z M 148.390625 126.980469 "/></clipPath><clipPath id="265e8fb398"><path d="M 120.496094 3.933594 L 1.769531 30.847656 L 29.660156 153.894531 L 148.390625 126.980469 Z M 120.496094 3.933594 "/></clipPath><clipPath id="943be558e3"><path d="M 117 10 L 125 10 L 125 25 L 117 25 Z M 117 10 "/></clipPath><clipPath id="dc3dfde55b"><path d="M 117.542969 10.429688 L 122 9.558594 L 124.882812 24.335938 L 120.425781 25.207031 Z M 117.542969 10.429688 "/></clipPath><clipPath id="cc8b69be0d"><path d="M 120.125 23.445312 C 118.007812 10.941406 118.429688 10.457031 118.96875 10.234375 C 119.574219 10.003906 120.90625 10.203125 121.441406 10.617188 C 121.828125 10.945312 122.054688 11.765625 121.828125 12.273438 C 121.613281 12.832031 120.546875 13.675781 119.851562 13.753906 C 119.277344 13.808594 118.433594 13.453125 118.148438 12.992188 C 117.789062 12.484375 117.875 11.257812 118.234375 10.78125 C 118.597656 10.308594 119.5 9.960938 120.03125 10.027344 C 120.699219 10.128906 121.378906 10.628906 121.875 11.515625 C 123.085938 13.410156 124.230469 21.261719 124.015625 23.148438 C 123.875 23.75 123.730469 24.011719 123.398438 24.304688 C 123.070312 24.601562 122.589844 24.808594 122.144531 24.839844 C 121.695312 24.867188 121.152344 24.742188 120.789062 24.527344 C 120.484375 24.296875 120.125 23.445312 120.125 23.445312 "/></clipPath></defs><g id="0758f0cbb7"><g clip-rule="nonzero" clip-path="url(#017537ac9a)"><g clip-rule="nonzero" clip-path="url(#b6d9577530)"><g clip-rule="nonzero" clip-path="url(#97de121152)"><g clip-rule="nonzero" clip-path="url(#ac7a66536b)"><path style=" stroke:none;fill-rule:nonzero;fill:url(#linear0);" d="M 126.027344 89.054688 L 23.769531 89.054688 L 23.769531 135.265625 L 126.027344 135.265625 Z M 126.027344 89.054688 "/></g></g></g></g><g clip-rule="nonzero" clip-path="url(#639dc3e41b)"><g clip-rule="nonzero" clip-path="url(#350d545ff6)"><path style=" stroke:none;fill-rule:evenodd;fill:#91dbe8;fill-opacity:1;" d="M 23.769531 90.488281 C 23.769531 90.488281 26.863281 89.152344 33.984375 89.726562 C 41.105469 90.296875 51.691406 91.859375 57.824219 89.800781 C 63.953125 87.742188 85.355469 88.085938 90.152344 88.773438 C 94.953125 89.457031 106.03125 88.695312 112.125 87.628906 C 118.21875 86.5625 126.027344 87.171875 126.027344 87.171875 L 126.027344 90.601562 C 126.027344 90.601562 120.046875 89.800781 112.203125 90.90625 C 104.355469 92.011719 100.09375 91.972656 95.902344 91.59375 C 91.714844 91.210938 88.746094 90.714844 88.746094 90.714844 L 56.832031 91.097656 C 56.832031 91.097656 50.894531 92.355469 44.800781 93.078125 C 38.707031 93.804688 35.128906 94.222656 31.054688 94.414062 C 26.980469 94.605469 23.769531 94.414062 23.769531 94.414062 L 23.769531 90.488281 "/></g></g><g clip-rule="nonzero" clip-path="url(#2e393d2f81)"><g clip-rule="nonzero" clip-path="url(#7e5e850b15)"><path style=" stroke:none;fill-rule:evenodd;fill:#b6e7ef;fill-opacity:1;" d="M 40.414062 91.421875 C 40.414062 91.785156 42.640625 91.839844 42.847656 91.269531 C 43.058594 90.699219 40.355469 90.925781 40.414062 91.421875 Z M 28.664062 94.488281 C 29.558594 93.582031 28.855469 94.042969 29.386719 93.945312 C 29.921875 93.851562 31.480469 93.832031 31.996094 93.621094 C 32.511719 93.414062 32.242188 93.316406 32.757812 93.109375 C 33.273438 92.898438 34.890625 92.957031 35.9375 92.957031 C 36.984375 92.957031 37.839844 92.898438 38.316406 92.9375 C 38.792969 92.972656 40.734375 92.648438 40.640625 92.308594 C 40.546875 91.964844 39.554688 92.171875 38.546875 92.328125 C 37.535156 92.480469 36.757812 92.171875 36.128906 92.15625 C 35.5 92.136719 32.816406 92.515625 33.042969 92.308594 C 33.273438 92.097656 34.679688 91.773438 34.355469 91.601562 C 34.035156 91.429688 29.386719 92.023438 28.472656 92.335938 C 27.558594 92.648438 27.007812 93.46875 26.902344 93.671875 C 26.796875 93.871094 26.511719 93.765625 25.683594 93.671875 C 25.300781 93.625 24.511719 93.835938 23.769531 94.078125 L 23.769531 94.414062 C 23.769531 94.414062 25.792969 94.535156 28.664062 94.488281 Z M 42.277344 93.378906 C 41.199219 93.503906 40.203125 93.621094 39.269531 93.722656 C 39.328125 93.515625 39.480469 93.3125 39.820312 93.242188 C 40.503906 93.101562 41.578125 93.300781 42.277344 93.378906 Z M 46.523438 90.761719 C 48.335938 90.84375 50.125 90.863281 51.816406 90.777344 C 51.082031 91.078125 50.523438 91.351562 50.730469 91.421875 C 51.246094 91.59375 53.167969 91.421875 53.890625 91.078125 C 54.144531 90.957031 54.316406 90.761719 54.476562 90.542969 C 55.691406 90.378906 56.816406 90.140625 57.824219 89.800781 C 58.542969 89.558594 59.480469 89.351562 60.570312 89.171875 C 60.546875 89.484375 60.253906 90.234375 59.890625 91.0625 L 56.832031 91.097656 C 56.832031 91.097656 54.871094 91.511719 52.042969 92.003906 C 51.320312 91.972656 50.273438 91.953125 49.496094 92.03125 C 48.179688 92.164062 46.332031 92.257812 45.285156 92.449219 C 44.238281 92.640625 42.601562 92.832031 42.316406 92.699219 C 42.03125 92.5625 44.144531 92.296875 44.449219 92.03125 C 44.753906 91.765625 44.277344 91.613281 44.46875 91.441406 C 44.65625 91.269531 45.628906 91.6875 46.125 91.382812 C 46.449219 91.183594 46.429688 90.984375 46.523438 90.761719 Z M 38.207031 90.113281 C 38.722656 90.160156 39.242188 90.210938 39.773438 90.261719 C 39.667969 90.488281 39.511719 90.71875 39.25 90.886719 C 38.8125 91.171875 36.738281 91.15625 36.488281 91.078125 C 36.242188 91.003906 36.640625 90.792969 37.5 90.546875 C 37.84375 90.445312 38.066406 90.277344 38.207031 90.113281 Z M 32.683594 89.640625 C 32.878906 89.648438 33.078125 89.660156 33.28125 89.671875 C 32.992188 89.808594 32.886719 89.949219 33.214844 89.972656 C 33.75 90.011719 34.949219 90.316406 34.71875 90.621094 C 34.492188 90.925781 33.84375 90.90625 33.0625 90.867188 C 32.28125 90.832031 29.464844 90.699219 29.597656 90.488281 C 29.730469 90.277344 30.683594 90.257812 31.539062 90.03125 C 31.929688 89.925781 32.347656 89.773438 32.683594 89.640625 Z M 124.941406 90.492188 C 124.777344 90.230469 124.292969 89.949219 123.789062 89.839844 C 122.914062 89.648438 120.265625 89.746094 120.683594 89.59375 C 121.105469 89.441406 121.828125 89.402344 121.828125 89.136719 C 121.828125 88.867188 121.617188 88.773438 122.703125 88.714844 C 123.789062 88.65625 124.816406 88.621094 125.121094 88.503906 C 125.425781 88.390625 125.367188 87.914062 124.796875 87.859375 C 124.226562 87.800781 121.941406 87.589844 121.027344 87.628906 C 120.113281 87.667969 119.390625 87.839844 120 88.105469 C 120.609375 88.371094 120.949219 88.582031 120.113281 88.503906 C 119.277344 88.429688 118.304688 88.503906 117.105469 88.695312 C 115.90625 88.886719 114.667969 89 114.039062 89.136719 C 113.410156 89.269531 111.394531 89.191406 111.925781 88.964844 C 112.460938 88.734375 113.542969 88.335938 113.125 88.335938 C 112.707031 88.335938 110.820312 88.296875 110.136719 88.410156 C 109.453125 88.523438 109.375 88.847656 108.898438 88.90625 C 108.421875 88.964844 107.320312 89.117188 105.699219 89.210938 C 104.082031 89.304688 102.941406 89.171875 101.777344 89.363281 C 100.617188 89.554688 101.378906 89.992188 100.789062 90.125 C 100.199219 90.257812 98.503906 90.316406 97.492188 90.238281 C 96.484375 90.164062 94.027344 90.203125 94.238281 90.488281 C 94.445312 90.773438 96.238281 90.886719 97.304688 90.792969 C 98.371094 90.699219 100.597656 90.679688 101.511719 90.679688 C 102.425781 90.679688 104.253906 90.488281 105.035156 90.316406 C 105.8125 90.144531 108.5 90.144531 109.507812 90.085938 C 110.515625 90.03125 112.746094 90.085938 112.078125 90.257812 C 111.410156 90.429688 107.148438 90.792969 105.96875 90.753906 C 104.785156 90.714844 104.597656 90.8125 103.816406 91.058594 C 103.035156 91.308594 101.988281 91.269531 101.359375 91.34375 C 101.046875 91.382812 100.847656 91.613281 100.726562 91.835938 C 103.710938 91.847656 107.242188 91.605469 112.203125 90.90625 C 112.722656 90.832031 113.234375 90.769531 113.734375 90.710938 C 113.582031 90.476562 113.441406 90.367188 113.945312 90.070312 C 114.59375 89.6875 118.417969 89.269531 118.304688 89.6875 C 118.246094 89.902344 117.703125 90.1875 117.195312 90.417969 C 120.726562 90.21875 123.503906 90.371094 124.941406 90.492188 Z M 88.585938 88.605469 C 89.214844 88.65625 89.746094 88.714844 90.152344 88.773438 C 91.640625 88.984375 93.734375 89.058594 96.09375 89.027344 C 95.910156 89.28125 95.53125 89.589844 94.980469 89.726562 C 94.125 89.933594 92.390625 89.34375 92.238281 89.496094 C 92.085938 89.648438 92.296875 89.859375 91.859375 89.914062 C 91.421875 89.972656 89.707031 90.011719 89.707031 90.011719 C 89.511719 89.988281 88.984375 89.222656 88.585938 88.605469 Z M 23.769531 90.488281 C 23.769531 90.488281 25.128906 89.902344 28.117188 89.671875 C 28.027344 90.304688 26.664062 90.390625 26.933594 90.5625 C 27.199219 90.734375 28.777344 90.945312 28.570312 91.25 C 28.359375 91.554688 27.027344 91.632812 25.75 91.632812 C 25.066406 91.632812 24.316406 91.8125 23.769531 91.980469 L 23.769531 90.488281 "/></g></g><g clip-rule="nonzero" clip-path="url(#12f1d749f6)"><g clip-rule="nonzero" clip-path="url(#f4ae89e507)"><path style=" stroke:none;fill-rule:evenodd;fill:#c0e7f9;fill-opacity:1;" d="M 60.421875 83.304688 C 60.421875 83.304688 60.519531 81.609375 60.460938 81.226562 C 60.402344 80.84375 60.726562 80.292969 61.566406 78.5 C 62.402344 76.710938 62.839844 74.519531 63.03125 74.214844 C 63.222656 73.910156 64.117188 75.167969 64.191406 77.128906 C 64.269531 79.09375 61.316406 84.105469 60.421875 83.304688 "/></g></g><g clip-rule="nonzero" clip-path="url(#bf6bd1d4d2)"><g clip-rule="nonzero" clip-path="url(#5fb38f0c2e)"><path style=" stroke:none;fill-rule:evenodd;fill:#9fd2ee;fill-opacity:1;" d="M 56.832031 91.097656 C 56.832031 91.097656 57.644531 89.878906 58.539062 88.164062 C 59.433594 86.449219 60.289062 83.628906 60.421875 83.304688 C 60.554688 82.980469 60.878906 81.78125 61.300781 81.1875 C 61.71875 80.597656 62.308594 79.53125 62.632812 78.671875 C 62.957031 77.816406 66.609375 79.910156 67.183594 81.78125 C 67.753906 83.648438 66.324219 89.839844 66.324219 89.839844 C 66.324219 89.839844 62.726562 90.699219 56.832031 91.097656 "/></g></g><g clip-rule="nonzero" clip-path="url(#0807f7270d)"><g clip-rule="nonzero" clip-path="url(#a83af64006)"><path style=" stroke:none;fill-rule:evenodd;fill:#e8f7fd;fill-opacity:1;" d="M 65.914062 89.929688 C 65.914062 89.929688 66.191406 86.867188 65.984375 85.074219 C 65.773438 83.285156 65.242188 82.3125 64.535156 81.796875 C 63.832031 81.285156 62.554688 80.007812 62.59375 79.339844 C 62.632812 78.671875 62.785156 78.179688 62.972656 77.300781 C 63.164062 76.425781 63.113281 74.167969 63.113281 74.167969 C 63.113281 74.167969 63.621094 73.851562 64.210938 74.460938 C 64.800781 75.070312 66.210938 76.691406 66.535156 76.917969 C 66.859375 77.148438 69.546875 88.386719 65.914062 89.929688 "/></g></g><g clip-rule="nonzero" clip-path="url(#dc01f7fc1d)"><g clip-rule="nonzero" clip-path="url(#584ff1d5fc)"><path style=" stroke:none;fill-rule:evenodd;fill:#e8f7fd;fill-opacity:1;" d="M 69.257812 64.992188 C 69.542969 64.875 70.4375 65.429688 71.066406 65.488281 C 71.695312 65.542969 75.160156 65.828125 75.75 65.960938 C 76.339844 66.097656 75.691406 68.800781 74.019531 69.90625 C 72.34375 71.011719 68.78125 66.953125 69.257812 64.992188 "/></g></g><g clip-rule="nonzero" clip-path="url(#7bca03fc6c)"><g clip-rule="nonzero" clip-path="url(#5c7bf41027)"><path style=" stroke:none;fill-rule:evenodd;fill:#cfeefb;fill-opacity:1;" d="M 78.417969 68.859375 C 78.722656 69.183594 79.140625 70.097656 79.75 70.726562 C 80.359375 71.355469 81.691406 71.71875 82.070312 72.136719 C 82.453125 72.554688 80.246094 74.917969 78.949219 74.539062 C 77.65625 74.15625 77.351562 69.734375 78.417969 68.859375 "/></g></g><g clip-rule="nonzero" clip-path="url(#294116f0a7)"><g clip-rule="nonzero" clip-path="url(#5119c776fc)"><path style=" stroke:none;fill-rule:evenodd;fill:#9fd2ee;fill-opacity:1;" d="M 81.597656 85.722656 C 81.445312 85.953125 80.566406 89.34375 82.015625 89.746094 C 83.460938 90.144531 86.78125 89.179688 86.792969 88.867188 C 86.804688 88.554688 87.042969 85.398438 86.832031 85.132812 C 86.621094 84.867188 81.917969 85.246094 81.597656 85.722656 "/></g></g><g clip-rule="nonzero" clip-path="url(#1234360031)"><g clip-rule="nonzero" clip-path="url(#158145af3e)"><path style=" stroke:none;fill-rule:evenodd;fill:#ecf9fa;fill-opacity:1;" d="M 72.761719 68.765625 C 72.761719 68.765625 73.503906 67.773438 74.113281 67.203125 C 74.722656 66.628906 75.484375 65.925781 75.75 65.960938 C 76.015625 66 76.722656 66.726562 77.160156 67.257812 C 77.597656 67.792969 78.21875 68.601562 78.417969 68.859375 C 78.613281 69.117188 78.492188 70.554688 78.722656 71.355469 C 78.949219 72.15625 78.988281 73.261719 78.875 74.195312 C 78.757812 75.128906 79.253906 82.066406 78.453125 83.398438 C 77.65625 84.734375 75.578125 85.800781 74.742188 85.515625 C 73.902344 85.230469 70.707031 72.367188 72.761719 68.765625 "/></g></g><g clip-rule="nonzero" clip-path="url(#2439b92c7b)"><g clip-rule="nonzero" clip-path="url(#7f054d3737)"><path style=" stroke:none;fill-rule:evenodd;fill:#cfeefb;fill-opacity:1;" d="M 66.074219 89.898438 C 66.074219 89.898438 66.441406 87.441406 66.628906 85.171875 C 66.820312 82.90625 66.34375 79.300781 66.136719 78.292969 C 65.925781 77.28125 65.792969 76.480469 65.90625 75.527344 C 66.019531 74.574219 66.421875 71.394531 66.402344 70.480469 C 66.382812 69.566406 66.898438 69.203125 67.238281 68.515625 C 67.582031 67.832031 67.984375 67.238281 68.421875 66.382812 C 68.859375 65.523438 69.257812 64.992188 69.257812 64.992188 C 69.257812 64.992188 70.097656 65.886719 70.648438 66.402344 C 71.199219 66.914062 72.113281 67.867188 72.476562 68.058594 C 72.835938 68.25 73.335938 68.046875 73.335938 68.046875 C 73.335938 68.046875 74.570312 71.773438 74.875 72.59375 C 75.179688 73.414062 75.808594 74.863281 76.246094 75.566406 C 76.683594 76.273438 76.570312 76.214844 76.589844 77.242188 C 76.609375 78.273438 76.339844 81.476562 76.304688 82.503906 C 76.265625 83.53125 76.320312 83.894531 76.320312 84.773438 C 76.320312 85.648438 75.902344 88.984375 75.5625 89.210938 C 75.21875 89.441406 66.878906 90.011719 66.074219 89.898438 "/></g></g><g clip-rule="nonzero" clip-path="url(#1419f6813d)"><g clip-rule="nonzero" clip-path="url(#9458d8a2ec)"><path style=" stroke:none;fill-rule:evenodd;fill:#e8f7fd;fill-opacity:1;" d="M 77.808594 82.5625 C 77.808594 82.5625 77.828125 80.863281 77.84375 79.835938 C 77.863281 78.808594 77.996094 77.875 77.902344 76.824219 C 77.808594 75.777344 78.054688 74.824219 78.167969 74.460938 C 78.285156 74.101562 79.214844 73.109375 79.617188 72.785156 C 80.015625 72.460938 81.804688 72.042969 82.070312 72.136719 C 82.339844 72.234375 83.289062 73.355469 83.425781 73.625 C 83.558594 73.890625 83.558594 76.101562 84.035156 77.910156 C 84.507812 79.722656 85.957031 81.4375 86.507812 82.179688 C 87.0625 82.921875 87.515625 83.398438 87.707031 83.953125 C 87.898438 84.503906 87.441406 86.5625 86.773438 86.695312 C 86.109375 86.828125 85.214844 86.925781 84.148438 86.925781 C 83.082031 86.925781 81.863281 87.132812 81.140625 86.847656 C 80.414062 86.5625 77.65625 83.285156 77.808594 82.5625 "/></g></g><g clip-rule="nonzero" clip-path="url(#cc3927a676)"><g clip-rule="nonzero" clip-path="url(#bc1fecdcdc)"><path style=" stroke:none;fill-rule:evenodd;fill:#cfeefb;fill-opacity:1;" d="M 83.765625 88.601562 C 83.765625 88.601562 85.316406 87.894531 85.878906 87.324219 C 86.445312 86.757812 86.335938 85.722656 86.832031 85.132812 C 87.328125 84.542969 87.582031 83.664062 87.582031 83.664062 C 87.582031 83.664062 88.449219 84.542969 88.871094 85.039062 C 89.289062 85.535156 89.269531 86.066406 89.441406 87 C 89.613281 87.933594 90.152344 88.773438 90.152344 88.773438 C 90.152344 88.773438 84.480469 89.671875 83.765625 88.601562 "/></g></g><g clip-rule="nonzero" clip-path="url(#e49300e243)"><g clip-rule="nonzero" clip-path="url(#725820ed97)"><path style=" stroke:none;fill-rule:evenodd;fill:#c0e7f9;fill-opacity:1;" d="M 74.113281 89.175781 C 74.113281 89.175781 74.605469 87.148438 74.875 86.355469 C 75.144531 85.558594 75.980469 83.933594 76.550781 83.210938 C 77.121094 82.484375 77.824219 81.199219 77.824219 81.199219 C 77.824219 81.199219 78.113281 81.953125 78.875 82.886719 C 79.636719 83.820312 80.074219 84.582031 80.566406 85.285156 C 81.0625 85.992188 82.1875 87.058594 82.453125 87.441406 C 82.71875 87.820312 83.214844 89.039062 83.214844 89.039062 C 83.214844 89.039062 74.78125 89.460938 74.113281 89.175781 "/></g></g><g clip-rule="nonzero" clip-path="url(#f59e806cec)"><g clip-rule="nonzero" clip-path="url(#0938a9c6b3)"><path style=" stroke:none;fill-rule:evenodd;fill:#548dc1;fill-opacity:1;" d="M 56.832031 91.097656 C 56.832031 91.097656 54.730469 94.28125 54.503906 94.679688 C 54.273438 95.082031 54.558594 95.460938 54.425781 96.359375 C 54.292969 97.253906 53.96875 98.664062 53.511719 99.882812 C 53.054688 101.105469 52.675781 102.664062 52.371094 103.429688 C 52.066406 104.191406 55.148438 103.695312 56.632812 102.207031 C 58.121094 100.722656 65.089844 93.558594 65.851562 92.453125 C 66.613281 91.347656 66.746094 89.910156 66.746094 89.910156 C 66.746094 89.910156 60.429688 90.480469 56.832031 91.097656 "/></g></g><g clip-rule="nonzero" clip-path="url(#e8a15241d7)"><g clip-rule="nonzero" clip-path="url(#3403f84462)"><path style=" stroke:none;fill-rule:evenodd;fill:#335c86;fill-opacity:1;" d="M 45.726562 126.085938 C 45.761719 126.351562 47.742188 131.117188 48.582031 133.441406 C 49.417969 135.765625 53.152344 144.953125 53.949219 146.171875 C 54.75 147.390625 56.3125 147.507812 56.769531 147.660156 C 57.226562 147.8125 58.75 148.609375 58.75 148.609375 C 58.75 148.609375 60.121094 145.332031 60.121094 143.847656 C 60.121094 142.359375 52.464844 122.429688 45.726562 126.085938 "/></g></g><g clip-rule="nonzero" clip-path="url(#f3948a676b)"><g clip-rule="nonzero" clip-path="url(#75f61e1fa8)"><path style=" stroke:none;fill-rule:evenodd;fill:#335c86;fill-opacity:1;" d="M 95.667969 149.488281 C 95.820312 148.269531 95.363281 146.859375 95.742188 144.53125 C 96.125 142.207031 96.773438 138.890625 97.074219 137.214844 C 97.378906 135.539062 96.925781 134.929688 96.160156 134.699219 C 95.402344 134.472656 91.78125 139.042969 91.746094 139.84375 C 91.707031 140.644531 94.105469 149.144531 95.667969 149.488281 "/></g></g><g clip-rule="nonzero" clip-path="url(#fcccb1a247)"><g clip-rule="nonzero" clip-path="url(#a3d16ee47b)"><path style=" stroke:none;fill-rule:evenodd;fill:#5e9dcc;fill-opacity:1;" d="M 90.679688 90.429688 C 90.679688 90.429688 91.078125 91.535156 92.050781 93.042969 C 93.019531 94.546875 94.125 95.769531 94.789062 96.453125 C 95.457031 97.140625 96.410156 97.671875 97 97.976562 C 97.589844 98.28125 95.078125 100.988281 92.945312 101.140625 C 90.8125 101.292969 85.707031 99.996094 84.453125 98.054688 C 83.195312 96.109375 83.214844 89.039062 83.214844 89.039062 C 83.214844 89.039062 89.09375 89.355469 90.679688 90.429688 "/></g></g><g clip-rule="nonzero" clip-path="url(#b49e88bec8)"><g clip-rule="nonzero" clip-path="url(#d357c7939e)"><path style=" stroke:none;fill-rule:evenodd;fill:#4b81bb;fill-opacity:1;" d="M 91.933594 99.921875 C 91.933594 99.921875 93.078125 99.675781 93.972656 99.121094 C 94.867188 98.570312 96.351562 97.742188 96.617188 97.773438 C 96.886719 97.808594 97.855469 97.808594 98.046875 97.882812 C 98.238281 97.960938 99.09375 100.457031 99.246094 101.847656 C 99.398438 103.238281 98.578125 107.394531 97.324219 107.660156 C 96.066406 107.925781 91.6875 100.628906 91.933594 99.921875 "/></g></g><g clip-rule="nonzero" clip-path="url(#2ba8d33123)"><g clip-rule="nonzero" clip-path="url(#20bd0357a9)"><path style=" stroke:none;fill-rule:evenodd;fill:#5c97c7;fill-opacity:1;" d="M 96.980469 106.171875 C 96.980469 106.171875 97.265625 103.773438 97.644531 102.761719 C 98.027344 101.75 98.292969 100.304688 98.199219 99.617188 C 98.105469 98.929688 98.046875 97.882812 98.046875 97.882812 C 98.046875 97.882812 98.828125 98.207031 99.265625 98.683594 C 99.703125 99.160156 99.988281 99.808594 100.445312 100.1875 C 100.902344 100.570312 101.132812 101.027344 101.300781 101.484375 C 101.472656 101.941406 102.292969 105.371094 102.617188 106.78125 C 102.941406 108.191406 102.996094 109.488281 103.167969 110.613281 C 103.339844 111.738281 103.550781 112.195312 103.585938 112.691406 C 103.625 113.183594 102.617188 116.863281 102.578125 117.777344 C 102.539062 118.691406 95.113281 110.804688 96.980469 106.171875 "/></g></g><g clip-rule="nonzero" clip-path="url(#bcdcd42d66)"><g clip-rule="nonzero" clip-path="url(#a70c231743)"><path style=" stroke:none;fill-rule:evenodd;fill:#71b4d8;fill-opacity:1;" d="M 87.726562 96.96875 C 87.726562 96.96875 89.824219 98.535156 91.308594 99.101562 C 92.789062 99.671875 93.644531 100.820312 94.621094 101.769531 C 95.59375 102.71875 97.476562 106.574219 98.199219 108.210938 C 98.921875 109.851562 101.203125 115.230469 101.625 116.40625 C 102.050781 117.582031 94.011719 114.460938 93.707031 114.234375 C 93.402344 114.003906 87.535156 105.085938 87.535156 105.085938 C 87.535156 105.085938 86.164062 98.453125 87.726562 96.96875 "/></g></g><g clip-rule="nonzero" clip-path="url(#0149c6c04a)"><g clip-rule="nonzero" clip-path="url(#5b9c1da85e)"><path style=" stroke:none;fill-rule:evenodd;fill:#63a5cf;fill-opacity:1;" d="M 96.484375 110.878906 C 96.484375 110.878906 99.304688 113.242188 100.160156 114.328125 C 101.015625 115.414062 102.425781 117.398438 102.578125 117.777344 C 102.730469 118.160156 101.929688 120.3125 102.027344 122.007812 C 102.121094 123.703125 102.671875 126.753906 102.863281 127.59375 C 103.054688 128.429688 102.101562 130.375 101.722656 131.671875 C 101.339844 132.964844 101.035156 135.0625 100.960938 135.328125 C 100.882812 135.59375 99.96875 135.75 99.167969 135.175781 C 98.371094 134.605469 96.734375 129.726562 96.65625 128.851562 C 96.582031 127.972656 91.628906 117.492188 96.484375 110.878906 "/></g></g><g clip-rule="nonzero" clip-path="url(#3b44f1850d)"><g clip-rule="nonzero" clip-path="url(#f345db0eb0)"><path style=" stroke:none;fill-rule:evenodd;fill:#4b81bb;fill-opacity:1;" d="M 98.292969 131.632812 C 98.292969 131.632812 100.21875 126.675781 100.523438 125.78125 C 100.828125 124.886719 100.996094 119.914062 101.113281 118.769531 C 101.226562 117.625 101.257812 116.902344 100.617188 116.113281 C 99.976562 115.324219 97.476562 111.640625 96.523438 110.441406 C 95.570312 109.242188 93.992188 107.105469 93.4375 106.363281 C 92.886719 105.621094 92.714844 105.429688 91.628906 104.992188 C 90.542969 104.550781 88.566406 104.324219 88.144531 104.304688 C 87.726562 104.285156 81.691406 108.191406 81.042969 111.355469 C 80.394531 114.519531 83.0625 132.507812 98.292969 131.632812 "/></g></g><g clip-rule="nonzero" clip-path="url(#e3a6591cec)"><g clip-rule="nonzero" clip-path="url(#e8e7cb4a2b)"><path style=" stroke:none;fill-rule:evenodd;fill:#40749f;fill-opacity:1;" d="M 83.101562 111.851562 C 83.101562 111.851562 85.84375 119.054688 87.25 120.65625 C 88.660156 122.257812 92.125 124.925781 92.125 124.925781 C 92.125 124.925781 98.445312 130.640625 98.941406 131.515625 C 99.4375 132.394531 99.609375 133.554688 99.914062 134.320312 C 100.21875 135.082031 100.625 135.539062 100.625 135.539062 C 100.625 135.539062 100.066406 135.746094 99.167969 136.015625 C 98.273438 136.28125 97.75 136.707031 97.378906 137.140625 C 97.011719 137.570312 96.867188 137.3125 96.066406 137.539062 C 95.265625 137.769531 94.90625 138.394531 94.21875 139.558594 C 93.535156 140.722656 93.039062 142.285156 92.695312 142.609375 C 92.355469 142.933594 90.847656 144.628906 90.164062 145.503906 C 89.480469 146.382812 89.003906 147.734375 88.753906 148.917969 C 88.507812 150.097656 73.617188 145.617188 70.417969 142.339844 C 67.222656 139.0625 67.675781 121.152344 68.972656 118.332031 C 70.265625 115.511719 77.273438 108.726562 83.101562 111.851562 "/></g></g><g clip-rule="nonzero" clip-path="url(#dd07ba29ca)"><g clip-rule="nonzero" clip-path="url(#d002b4a45a)"><path style=" stroke:none;fill-rule:evenodd;fill:#548dc1;fill-opacity:1;" d="M 71.675781 128.355469 C 71.753906 128.621094 73.273438 130.601562 74.152344 133.347656 C 75.027344 136.089844 75.179688 138.644531 75.179688 138.644531 L 69.011719 134.414062 C 69.011719 134.414062 68.894531 129.839844 71.675781 128.355469 "/></g></g><g clip-rule="nonzero" clip-path="url(#77a0d668ee)"><g clip-rule="nonzero" clip-path="url(#3225c21fa7)"><path style=" stroke:none;fill-rule:evenodd;fill:#5c97c7;fill-opacity:1;" d="M 72.703125 116.996094 C 72.703125 116.996094 75.828125 115.96875 77.539062 115.320312 C 79.253906 114.671875 81.082031 113.984375 81.996094 113.605469 C 82.910156 113.222656 84.316406 112.003906 84.851562 111.203125 C 85.382812 110.402344 87.453125 107.410156 87.820312 106.742188 C 88.191406 106.078125 89.191406 103.808594 89.308594 103.160156 C 89.421875 102.511719 89.117188 98.988281 88.90625 98.226562 C 88.699219 97.464844 87.917969 96.1875 87.382812 95.613281 C 86.851562 95.042969 85.785156 93.84375 85.136719 93.214844 C 84.488281 92.585938 84.164062 90.925781 84.03125 90.601562 C 83.898438 90.277344 83.613281 89.460938 83.613281 89.460938 L 74.113281 89.175781 C 74.113281 89.175781 66.894531 97.234375 66.441406 101.730469 C 65.984375 106.230469 67.046875 115.527344 72.703125 116.996094 "/></g></g><g clip-rule="nonzero" clip-path="url(#181d077943)"><g clip-rule="nonzero" clip-path="url(#649c458ed3)"><path style=" stroke:none;fill-rule:evenodd;fill:#71b4d8;fill-opacity:1;" d="M 68.457031 102.761719 C 68.457031 102.761719 68.839844 108.476562 69.828125 109.699219 C 70.820312 110.917969 71.542969 111.222656 71.808594 111.832031 C 72.074219 112.441406 72.152344 113.546875 72.875 114.539062 C 73.597656 115.527344 73.863281 115.988281 73.523438 117.394531 C 73.179688 118.808594 72.875 120.484375 72.800781 121.589844 C 72.722656 122.695312 72.191406 123.609375 72.191406 124.789062 C 72.191406 125.972656 72.191406 127.496094 72.34375 128.375 C 72.492188 129.25 71.3125 130.125 71.007812 131.726562 C 70.703125 133.328125 70.171875 134.203125 70.171875 134.203125 C 70.171875 134.203125 60.992188 121.054688 61.261719 119.53125 C 61.527344 118.007812 64.308594 104.78125 68.457031 102.761719 "/></g></g><g clip-rule="nonzero" clip-path="url(#f18b946e95)"><g clip-rule="nonzero" clip-path="url(#ce7cfc107f)"><path style=" stroke:none;fill-rule:evenodd;fill:#40749f;fill-opacity:1;" d="M 54.578125 136.605469 C 54.578125 136.605469 56.078125 141.875 56.273438 142.359375 C 56.46875 142.84375 57.421875 143.460938 58.652344 144.378906 C 59.886719 145.300781 61.964844 146.972656 63.300781 147.925781 C 64.632812 148.878906 65.8125 149.945312 66.765625 150.898438 C 67.714844 151.851562 69.390625 152.726562 71.105469 153.605469 C 72.820312 154.480469 74.609375 155.699219 75.410156 156.15625 C 76.207031 156.613281 75.820312 145.464844 75.820312 145.464844 C 75.820312 145.464844 65.925781 132.566406 63.640625 130.964844 C 61.355469 129.363281 54.199219 129.210938 54.199219 129.210938 C 54.199219 129.210938 53.207031 130.8125 54.578125 136.605469 "/></g></g><g clip-rule="nonzero" clip-path="url(#86453faadf)"><g clip-rule="nonzero" clip-path="url(#b06e56612f)"><path style=" stroke:none;fill-rule:evenodd;fill:#4b81bb;fill-opacity:1;" d="M 54.769531 130.507812 C 54.769531 130.507812 56.785156 132.109375 58.234375 133.023438 C 59.679688 133.9375 60.785156 134.203125 61.738281 134.8125 C 62.6875 135.425781 64.480469 136.605469 65.316406 137.140625 C 66.15625 137.671875 68.476562 138.28125 68.476562 138.28125 C 68.476562 138.28125 61.8125 126.582031 60.59375 125.285156 C 59.375 123.992188 53.359375 125.019531 54.769531 130.507812 "/></g></g><g clip-rule="nonzero" clip-path="url(#3340c03cde)"><g clip-rule="nonzero" clip-path="url(#0d2606e449)"><path style=" stroke:none;fill-rule:evenodd;fill:#63a5cf;fill-opacity:1;" d="M 57.890625 126.085938 C 57.890625 126.085938 61.472656 130.660156 62.652344 132.109375 C 63.832031 133.554688 65.316406 135.117188 65.851562 136.070312 C 66.382812 137.023438 67.601562 140.683594 68.097656 142.132812 C 68.589844 143.582031 70.039062 145.066406 70.648438 146.132812 C 71.257812 147.199219 73.125 150.441406 73.238281 151.242188 C 73.351562 152.042969 73.273438 152.421875 73.921875 153.757812 C 74.570312 155.089844 75.066406 155.96875 75.863281 156.613281 C 76.664062 157.261719 77.386719 157.683594 77.921875 158.597656 C 78.453125 159.511719 79.007812 160.253906 79.75 161.015625 C 80.492188 161.777344 81.472656 162.847656 81.90625 162.988281 C 82.339844 163.132812 83.273438 162.617188 83.898438 162.523438 C 84.527344 162.425781 84.976562 162.539062 85.257812 162.417969 C 85.539062 162.292969 86.335938 160.671875 86.566406 160.425781 C 86.792969 160.179688 88.449219 157.328125 88.832031 156.578125 C 89.210938 155.824219 89.289062 152.328125 89.175781 151.699219 C 89.058594 151.070312 89.019531 149.753906 88.753906 148.917969 C 88.488281 148.078125 87.289062 145.582031 85.996094 144.457031 C 84.699219 143.332031 81.917969 141.847656 80.492188 140.875 C 79.0625 139.902344 75.542969 136.96875 74.550781 135.863281 C 73.5625 134.757812 72.496094 133.957031 71.714844 133.15625 C 70.933594 132.355469 69.65625 129.3125 68.859375 127.210938 C 68.058594 125.109375 68.132812 124.390625 67.257812 123.324219 C 66.382812 122.257812 65.203125 121.1875 64.441406 120.234375 C 63.679688 119.28125 63.449219 118.445312 62.839844 118.023438 C 62.230469 117.605469 57.015625 125.199219 57.890625 126.085938 "/></g></g><g clip-rule="nonzero" clip-path="url(#5d2bbde956)"><g clip-rule="nonzero" clip-path="url(#f1e9295440)"><path style=" stroke:none;fill-rule:evenodd;fill:#40749f;fill-opacity:1;" d="M 55.035156 129.457031 C 55.035156 129.457031 58.035156 127.160156 58.4375 126.785156 C 58.84375 126.410156 58.652344 125.609375 60.101562 123.589844 C 61.546875 121.570312 63.679688 119.09375 63.679688 119.09375 C 63.679688 119.09375 63.945312 117.414062 64.175781 116.386719 C 64.402344 115.355469 64.957031 112.714844 65.886719 110.667969 C 66.816406 108.625 67.070312 108.117188 67.105469 107.238281 C 67.144531 106.363281 58.917969 110.023438 58.425781 110.515625 C 57.929688 111.011719 51.722656 123.933594 55.035156 129.457031 "/></g></g><g clip-rule="nonzero" clip-path="url(#18cbd845aa)"><g clip-rule="nonzero" clip-path="url(#63185f4a91)"><path style=" stroke:none;fill-rule:evenodd;fill:#63a5cf;fill-opacity:1;" d="M 56.597656 121.835938 C 56.558594 122.066406 56.140625 124.695312 56.214844 126.144531 C 56.292969 127.59375 55.515625 129.832031 55.277344 130.902344 C 55.035156 131.976562 54.757812 137.230469 54.757812 137.230469 C 54.757812 137.230469 53.816406 133.84375 53.246094 133.195312 C 52.675781 132.546875 52.066406 133.15625 51.113281 132.46875 C 50.160156 131.785156 49.703125 130.03125 49.4375 129.039062 C 49.171875 128.046875 55.378906 120.617188 56.597656 121.835938 "/></g></g><g clip-rule="nonzero" clip-path="url(#270f2d9be0)"><g clip-rule="nonzero" clip-path="url(#ca67e48587)"><path style=" stroke:none;fill-rule:evenodd;fill:#71b4d8;fill-opacity:1;" d="M 50.351562 112.652344 C 50.351562 112.652344 47.230469 116.308594 47.113281 117.148438 C 47 117.988281 47.304688 120.390625 46.960938 122.027344 C 46.621094 123.664062 45.679688 125.9375 45.726562 126.085938 C 45.769531 126.238281 46.695312 127.285156 47.554688 127.894531 C 48.410156 128.507812 49.628906 129.738281 49.628906 129.738281 C 49.628906 129.738281 50.21875 128.773438 50.882812 128.523438 C 51.550781 128.277344 53.074219 127.265625 53.722656 126.65625 C 54.371094 126.046875 54.710938 124.410156 55.015625 123.820312 C 55.320312 123.226562 55.75 122.855469 55.816406 122.3125 C 55.882812 121.769531 52.351562 112.804688 50.351562 112.652344 "/></g></g><g clip-rule="nonzero" clip-path="url(#0d5972f3e3)"><g clip-rule="nonzero" clip-path="url(#4fafd97a90)"><path style=" stroke:none;fill-rule:evenodd;fill:#5e9dcc;fill-opacity:1;" d="M 60.957031 114.101562 C 60.957031 114.101562 62.253906 112.574219 63.773438 111.660156 C 65.296875 110.746094 66.820312 108.726562 67.886719 106.476562 C 68.953125 104.230469 70.554688 99.273438 71.621094 96.683594 C 72.6875 94.089844 73.140625 92.832031 73.296875 92.222656 C 73.449219 91.613281 73.691406 90.636719 74.074219 89.9375 C 74.460938 89.234375 74.21875 89.203125 74.21875 89.203125 L 65.914062 89.929688 C 65.914062 89.929688 64.210938 92.507812 63.640625 93.765625 C 63.070312 95.023438 57.015625 111.070312 60.957031 114.101562 "/></g></g><g clip-rule="nonzero" clip-path="url(#872b4e16c8)"><g clip-rule="nonzero" clip-path="url(#7c28803d0a)"><path style=" stroke:none;fill-rule:evenodd;fill:#4b81bb;fill-opacity:1;" d="M 64.761719 91.75 C 64.761719 91.75 64.023438 92.625 62.269531 93.5 C 60.519531 94.375 59.1875 94.988281 58.425781 95.175781 C 57.664062 95.367188 57.738281 96.28125 56.671875 97.921875 C 55.605469 99.558594 52.976562 102.800781 52.371094 103.429688 C 51.761719 104.058594 51.648438 104.210938 51.457031 105.695312 C 51.265625 107.183594 50.980469 110.058594 50.808594 110.957031 C 50.636719 111.851562 50.523438 112.097656 50.351562 112.652344 C 50.179688 113.203125 50.390625 113.355469 50.542969 114.136719 C 50.695312 114.917969 50.847656 116.425781 50.902344 116.921875 C 50.960938 117.414062 51.53125 118.007812 52.121094 119.015625 C 52.714844 120.027344 53.367188 120.972656 53.988281 121.761719 C 54.609375 122.546875 55.171875 122.976562 55.417969 123.179688 C 55.664062 123.378906 56.40625 122.90625 56.804688 122.484375 C 57.207031 122.066406 58.023438 120.027344 58.804688 119.492188 C 59.585938 118.960938 60.042969 118.691406 60.441406 117.949219 C 60.84375 117.207031 61.949219 113.167969 61.929688 112.234375 C 61.910156 111.296875 61.339844 109.144531 61.109375 108.269531 C 60.882812 107.390625 61.28125 105.144531 61.433594 103.65625 C 61.585938 102.171875 62.804688 97.617188 63.183594 96.394531 C 63.566406 95.175781 64.042969 93.957031 64.367188 93.308594 C 64.6875 92.660156 64.898438 92.148438 64.761719 91.75 "/></g></g><g clip-rule="nonzero" clip-path="url(#fe37b6b61b)"><g clip-rule="nonzero" clip-path="url(#52abf9abbb)"><path style=" stroke:none;fill-rule:evenodd;fill:#e2f5fa;fill-opacity:1;" d="M 56.832031 91.097656 C 56.832031 91.097656 67.753906 89.144531 73.351562 88.695312 C 78.949219 88.25 83.34375 88.480469 85.726562 88.523438 C 88.109375 88.570312 90.152344 88.773438 90.152344 88.773438 L 90.921875 91 C 90.921875 91 80.53125 89.078125 56.832031 91.097656 "/></g></g><g clip-rule="nonzero" clip-path="url(#6316f074d0)"><g clip-rule="nonzero" clip-path="url(#013e67c25b)"><g clip-rule="nonzero" clip-path="url(#7f54fabd4f)"><path style=" stroke:none;fill-rule:nonzero;fill:#84b527;fill-opacity:1;" d="M 99.476562 36.238281 C 100.480469 38.847656 101.890625 41.660156 103.875 44.570312 C 100.1875 43.339844 96.808594 42.660156 93.738281 42.417969 L 93.570312 50.601562 C 107.425781 54.035156 118.3125 65.757812 119.976562 80.597656 C 120.007812 80.808594 120.035156 81.035156 120.042969 81.253906 C 122.125 102.183594 109.316406 122.203125 89.429688 129.121094 C 63.011719 138.308594 35.15625 122.292969 29.148438 95.796875 C 24.882812 76.96875 32.832031 58.179688 47.757812 47.753906 C 49.1875 46.757812 49.808594 44.953125 49.363281 43.273438 C 48.601562 40.433594 45.253906 39.257812 42.839844 40.941406 C 24.371094 53.894531 15 77.675781 21.835938 101.023438 C 29.492188 127.121094 55.902344 143.765625 82.753906 139.425781 C 114.085938 134.347656 134.191406 104.027344 127.28125 73.550781 C 125.210938 64.414062 120.964844 56.324219 115.199219 49.738281 C 112.679688 46.875 110.523438 43.703125 108.765625 40.320312 L 99.476562 36.238281 "/></g></g></g><g clip-rule="nonzero" clip-path="url(#457d917918)"><g clip-rule="nonzero" clip-path="url(#50d0ff24a9)"><g clip-rule="nonzero" clip-path="url(#2d1c7db079)"><path style=" stroke:none;fill-rule:nonzero;fill:#92d222;fill-opacity:1;" d="M 60.699219 51.316406 C 60.238281 51.546875 60.179688 52.175781 60.601562 52.472656 C 63.644531 54.648438 73.703125 60.941406 84.753906 58.367188 C 91.332031 56.828125 95.523438 50.277344 94.097656 43.738281 C 92.683594 37.199219 86.195312 33.136719 79.613281 34.667969 C 66.910156 37.632812 68.488281 47.453125 60.699219 51.316406 "/></g></g></g><g clip-rule="nonzero" clip-path="url(#8edb0bd5b0)"><g clip-rule="nonzero" clip-path="url(#909c3b8b44)"><g clip-rule="nonzero" clip-path="url(#3558ca4513)"><path style=" stroke:none;fill-rule:nonzero;fill:#92d222;fill-opacity:1;" d="M 116.246094 7.457031 C 116.535156 7.027344 117.171875 7.054688 117.414062 7.5 C 119.171875 10.804688 124.125 21.589844 120.164062 32.21875 C 117.800781 38.550781 110.761719 41.859375 104.457031 39.609375 C 98.15625 37.371094 94.957031 30.417969 97.320312 24.089844 C 101.894531 11.867188 111.425781 14.6875 116.246094 7.457031 "/></g></g></g><g clip-rule="nonzero" clip-path="url(#ddc09de3da)"><g clip-rule="nonzero" clip-path="url(#b9d8c21fda)"><g clip-rule="nonzero" clip-path="url(#265e8fb398)"><path style=" stroke:none;fill-rule:nonzero;fill:#5b4f47;fill-opacity:1;" d="M 96.394531 44.863281 C 96.539062 46.324219 96.457031 47.78125 96.167969 49.171875 C 110.128906 53.523438 120.425781 65.792969 122.058594 80.335938 C 122.097656 80.601562 122.132812 80.90625 122.128906 81.046875 C 124.300781 102.84375 110.832031 123.898438 90.121094 131.097656 C 77.105469 135.617188 62.757812 134.410156 50.769531 127.757812 C 38.753906 121.09375 30.132812 109.613281 27.105469 96.257812 C 22.75 77.050781 30.382812 57.335938 46.554688 46.042969 C 47.25 45.550781 47.5625 44.664062 47.335938 43.808594 C 46.957031 42.402344 45.230469 41.816406 44.042969 42.65625 C 25.625 55.574219 17.507812 78.785156 23.851562 100.429688 C 31.257812 125.6875 56.4375 141.5625 82.417969 137.351562 C 96.90625 135.023438 109.386719 127.039062 117.558594 114.925781 C 125.742188 102.800781 128.46875 88.269531 125.238281 74.011719 C 123.308594 65.507812 119.296875 57.582031 113.625 51.125 C 111.28125 48.449219 109.234375 45.496094 107.507812 42.363281 C 106.53125 42.289062 105.566406 42.105469 104.605469 41.820312 C 104.933594 42.347656 105.253906 42.871094 105.605469 43.378906 C 106.117188 44.128906 106.097656 45.109375 105.554688 45.828125 C 105.253906 46.230469 104.820312 46.507812 104.339844 46.613281 C 103.980469 46.695312 103.589844 46.683594 103.21875 46.558594 C 100.882812 45.777344 98.597656 45.21875 96.394531 44.863281 Z M 87.71875 37.972656 C 85.464844 36.550781 82.785156 36.101562 80.15625 36.695312 C 80.140625 36.699219 80.117188 36.707031 80.09375 36.710938 C 73.480469 38.25 71.308594 41.765625 69.007812 45.480469 C 67.574219 47.792969 66.105469 50.167969 63.636719 51.980469 C 67.617188 54.417969 75.667969 58.261719 84.273438 56.328125 C 89.742188 55.046875 93.226562 49.605469 92.046875 44.179688 C 91.488281 41.59375 89.945312 39.390625 87.71875 37.972656 Z M 95.757812 34.320312 C 94.152344 30.863281 94.007812 26.964844 95.355469 23.351562 C 98.339844 15.367188 103.296875 13.121094 107.664062 11.128906 C 110.445312 9.871094 112.84375 8.78125 114.503906 6.296875 C 115.046875 5.46875 115.96875 5.007812 116.953125 5.054688 C 117.9375 5.105469 118.800781 5.652344 119.265625 6.519531 C 119.996094 7.890625 121.371094 10.734375 122.402344 14.347656 C 122.71875 15.460938 122.070312 16.625 120.957031 16.941406 C 119.84375 17.253906 118.691406 16.609375 118.371094 15.496094 C 117.800781 13.5 117.125 11.773438 116.523438 10.457031 C 114.414062 12.675781 111.878906 13.828125 109.40625 14.953125 C 105.421875 16.761719 101.660156 18.460938 99.285156 24.828125 C 98.332031 27.371094 98.433594 30.117188 99.5625 32.550781 C 100.675781 34.941406 102.667969 36.75 105.160156 37.636719 C 110.394531 39.5 116.234375 36.738281 118.199219 31.480469 C 119.144531 28.949219 119.609375 26.183594 119.558594 23.261719 C 119.550781 22.105469 120.476562 21.15625 121.632812 21.140625 C 122.785156 21.121094 123.742188 22.046875 123.753906 23.203125 C 123.8125 26.640625 123.261719 29.921875 122.125 32.953125 C 120.402344 37.566406 116.539062 40.792969 112.078125 41.9375 C 113.460938 44.210938 115.03125 46.367188 116.777344 48.355469 C 122.902344 55.347656 127.246094 63.902344 129.328125 73.085938 C 132.765625 88.261719 129.742188 104.363281 121.035156 117.269531 C 112.890625 129.34375 100.796875 137.59375 86.683594 140.792969 C 85.503906 141.0625 84.304688 141.300781 83.089844 141.492188 C 55.023438 146.039062 27.828125 128.894531 19.828125 101.609375 C 12.976562 78.242188 21.746094 53.171875 41.640625 39.222656 C 43.347656 38.039062 45.515625 37.746094 47.460938 38.449219 C 49.386719 39.152344 50.855469 40.746094 51.378906 42.722656 C 52.066406 45.273438 51.09375 47.988281 48.953125 49.472656 C 34.1875 59.796875 27.21875 77.792969 31.195312 95.332031 C 33.957031 107.519531 41.832031 118 52.804688 124.097656 C 63.90625 130.253906 76.664062 131.34375 88.734375 127.136719 C 107.644531 120.566406 119.929688 101.347656 117.949219 81.316406 C 117.941406 81.167969 117.921875 81.003906 117.898438 80.832031 C 116.441406 67.84375 107.214844 56.921875 94.726562 53.109375 C 92.8125 56.667969 89.441406 59.421875 85.230469 60.410156 C 85.183594 60.421875 85.136719 60.429688 85.085938 60.441406 C 73.195312 63.136719 62.410156 56.339844 59.386719 54.183594 C 58.582031 53.613281 58.148438 52.695312 58.226562 51.710938 C 58.308594 50.726562 58.878906 49.882812 59.769531 49.4375 C 62.449219 48.109375 63.839844 45.863281 65.441406 43.273438 C 67.96875 39.199219 70.832031 34.570312 79.136719 32.628906 C 79.167969 32.621094 79.199219 32.613281 79.230469 32.605469 C 82.953125 31.761719 86.761719 32.410156 89.957031 34.433594 C 92.296875 35.910156 94.101562 38.011719 95.214844 40.480469 C 96.585938 40.636719 97.976562 40.851562 99.398438 41.160156 C 98.742188 39.890625 98.15625 38.59375 97.640625 37.285156 C 96.90625 36.382812 96.261719 35.394531 95.757812 34.320312 "/></g></g></g><g clip-rule="nonzero" clip-path="url(#943be558e3)"><g clip-rule="nonzero" clip-path="url(#dc3dfde55b)"><g clip-rule="nonzero" clip-path="url(#cc8b69be0d)"><path style=" stroke:none;fill-rule:nonzero;fill:#5b4f47;fill-opacity:1;" d="M 114.667969 8.769531 L 123.652344 7.015625 L 127.378906 26.109375 L 118.394531 27.863281 Z M 114.667969 8.769531 "/></g></g></g></g></svg>